<svg id="Layer_1" data-name="Layer 1" xmlns="http://www.w3.org/2000/svg" viewBox="0 0 50.1 46.25"><defs><style>.cls-1{fill:#b2937b;}.cls-2{fill:#e1d6cc;}.cls-3{fill:#986e4e;}.cls-4{fill:#320700;}.cls-5{fill:#fae9d3;}.cls-6{fill:#fdf3ef;}.cls-7{fill:#c8b89c;}.cls-8{fill:#735541;}.cls-9{opacity:0.5;}.cls-10{fill:#eae5e2;}</style></defs><path class="cls-1" d="M29.62,5.68C26.16,1.85,22.8,1.89,21.51,2.4c-.78.32-.41,1.28,0,1.91-8.4-1.48-6.51.73-5,2.58-21.12,6.74-18.66,27.72-9.83,35,12.28,9.48,28.41,6.57,36.2-.66C58,26.74,45.81,6.07,29.62,5.68Z" transform="translate(0.05 -1.88)"/><path class="cls-2" d="M17.75,8a21.5,21.5,0,0,0-6.37,2.62C15.6,10,6.2,16.85,7.79,13.2a24,24,0,0,0-3,3.18C2.24,19.73,0,28,1.73,34,.09,29.27-.46,21.86,3.39,16.13A21.51,21.51,0,0,1,16.55,6.89Z" transform="translate(0.05 -1.88)"/><path class="cls-1" d="M27.47,5c.55,0,1.09.05,1.63.11a9.43,9.43,0,0,0-5.25-2.91A11.65,11.65,0,0,1,27.47,5Z" transform="translate(0.05 -1.88)"/><path class="cls-3" d="M33.83,6.25C46.48,10.94,53.49,27,41,40c-6.62,6.87-23.68,9.5-36.43-.32,13.92,13.61,32,7.68,38.34,1.51C56.52,27.89,47.76,9.7,33.83,6.25Z" transform="translate(0.05 -1.88)"/><path class="cls-2" d="M24.4,5.68s-5.16-1.51-7.3-1.14c-1.6.29-1.19.85-1.1,1.41-.89-.62-1.13-1.51-.23-1.9S21.19,3.79,24.4,5.68Z" transform="translate(0.05 -1.88)"/><path class="cls-2" d="M30.25,7s-2.82-3.06-5.7-3.78c-1.74-.43-3.33-.62-2.28,1.41-.77,0-.75-.09-.75-.09s-.9-1.7,0-2.09S27.14,1.65,30.25,7Z" transform="translate(0.05 -1.88)"/><path class="cls-4" d="M19.26,47.67h0A28.76,28.76,0,0,1,6.55,42.06C1.52,37.94-1,30.1.31,23c1.45-7.59,7-13.35,15.76-16.25-.73-.91-1.4-1.82-1-2.52.32-.54,1.3-1.06,5.93-.3a1.7,1.7,0,0,1-.18-1.17,1,1,0,0,1,.59-.62A5.06,5.06,0,0,1,24.1,2a10.13,10.13,0,0,1,5.65,3.43,20.42,20.42,0,0,1,2.81.28A21.07,21.07,0,0,1,43,10.86a21.62,21.62,0,0,1,6.21,9.7c2.25,7.38,0,15-6.08,20.82C37.34,46.74,28,49.21,19.26,47.67ZM24,2.53a4.61,4.61,0,0,0-2.38.13.4.4,0,0,0-.26.26,1.71,1.71,0,0,0,.42,1.23l.39.55-.67-.12c-4.72-.82-5.75-.39-5.94-.06s.56,1.4,1.15,2.12L17,7l-.39.12C7.89,10,2.29,15.61.86,23.1-.46,30,2,37.63,6.89,41.62a28.24,28.24,0,0,0,12.47,5.5h0c8.55,1.5,17.73-.91,23.36-6.14,6-5.71,8.12-13.09,5.94-20.25A21.19,21.19,0,0,0,32.46,6.25,19.53,19.53,0,0,0,29.62,6H29.5l-.09-.09A9.65,9.65,0,0,0,24,2.53Z" transform="translate(0.05 -1.88)"/><path class="cls-4" d="M24.4,5.68a16.47,16.47,0,0,0-3.82-1.25l.09-.55A9.25,9.25,0,0,1,24.4,5.68Z" transform="translate(0.05 -1.88)"/><path class="cls-5" d="M24.91,18.49C22.58,16.88,3.74,12.63,5.08,29.16S25.2,44.53,25.2,44.53,44,45.25,45,28.7,27.19,16.82,24.91,18.49Z" transform="translate(0.05 -1.88)"/><path class="cls-4" d="M30.25,7a10.07,10.07,0,0,0-1.76-2l.37-.42A5.47,5.47,0,0,1,30.25,7Z" transform="translate(0.05 -1.88)"/><polygon class="cls-4" points="15.94 4.65 16.37 4.28 17.79 6.08 15.94 4.65"/><path class="cls-4" d="M25,31.59c-2.53.21-3.64,1.62-2.56,2.15a20.31,20.31,0,0,0,1.94.76,2,2,0,0,0,1.42,0,18.59,18.59,0,0,0,1.89-.89C28.75,33,27.55,31.62,25,31.59Z" transform="translate(0.05 -1.88)"/><path class="cls-6" d="M23.88,32.15c-.38,0-.67.23-.65.41s.34.29.72.25.67-.24.65-.42S24.26,32.1,23.88,32.15Z" transform="translate(0.05 -1.88)"/><path class="cls-7" d="M19.28,35.06s2.66,2.68,5.8-.41c-.55,1.51-.69,2.36-3.3,2.73C20.49,37.61,19.32,36,19.28,35.06Z" transform="translate(0.05 -1.88)"/><path class="cls-7" d="M30.88,34.93s-2.59,2.74-5.8-.28c.58,1.5.74,2.34,3.36,2.65C29.73,37.51,30.87,35.9,30.88,34.93Z" transform="translate(0.05 -1.88)"/><path class="cls-4" d="M30.88,34.93A2.8,2.8,0,0,1,28,36.85l-.16,0a3.56,3.56,0,0,1-2.46-1.72l-.33-.46-.3.47a3.57,3.57,0,0,1-2.43,1.77l-.16,0a2.78,2.78,0,0,1-2.9-1.85s-.07,2.85,3.14,2.54a4.25,4.25,0,0,0,2.67-1.74,4.25,4.25,0,0,0,2.71,1.68C31,37.77,30.88,34.93,30.88,34.93Z" transform="translate(0.05 -1.88)"/><polygon class="cls-4" points="25.43 33.76 24.86 33.78 24.78 31.04 25.35 31.02 25.43 33.76"/><path class="cls-8" d="M44.8,24.9C36,19.25,29,23.12,30.28,28.3c1.63,6.52,13.31,6.1,13.45,6.1a18.67,18.67,0,0,0,1.07-9.5Z" transform="translate(0.05 -1.88)"/><path class="cls-8" d="M19.75,28.42c1.18-5.21-5.94-8.92-14.58-3.08a18.53,18.53,0,0,0,1.28,9.48C6.84,34.82,18.28,34.9,19.75,28.42Z" transform="translate(0.05 -1.88)"/><path class="cls-4" d="M33.21,27.75c0,2,1.33,3.61,2.88,3.6s2.76-1.64,2.71-3.63-1.34-3.61-2.88-3.6S33.16,25.76,33.21,27.75Z" transform="translate(0.05 -1.88)"/><g class="cls-9"><path class="cls-10" d="M36.53,29.24a.65.65,0,0,0,.59.7.64.64,0,0,0,.62-.67.67.67,0,0,0-.6-.7A.63.63,0,0,0,36.53,29.24Z" transform="translate(0.05 -1.88)"/></g><path class="cls-10" d="M34.21,26.57a.82.82,0,0,0,.79.81.76.76,0,0,0,.69-.86.82.82,0,0,0-.79-.82A.79.79,0,0,0,34.21,26.57Z" transform="translate(0.05 -1.88)"/><path class="cls-4" d="M16.92,27.75c0,2-1.33,3.61-2.88,3.6s-2.76-1.64-2.71-3.63,1.34-3.61,2.88-3.6S17,25.76,16.92,27.75Z" transform="translate(0.05 -1.88)"/><g class="cls-9"><path class="cls-10" d="M13.6,29.24a.65.65,0,0,1-.6.7.64.64,0,0,1-.61-.67.67.67,0,0,1,.6-.7A.63.63,0,0,1,13.6,29.24Z" transform="translate(0.05 -1.88)"/></g><path class="cls-10" d="M15.92,26.57a.82.82,0,0,1-.79.81.76.76,0,0,1-.69-.86.82.82,0,0,1,.78-.82A.79.79,0,0,1,15.92,26.57Z" transform="translate(0.05 -1.88)"/></svg>